<?xml version="1.0" encoding="utf-8"?>
<!-- Generator: Adobe Illustrator 21.0.0, SVG Export Plug-In . SVG Version: 6.00 Build 0)  -->
<svg version="1.0" xmlns="http://www.w3.org/2000/svg" xmlns:xlink="http://www.w3.org/1999/xlink" x="0px" y="0px" width="573.2px"
	 height="204.1px" viewBox="0 0 573.2 204.1" style="enable-background:new 0 0 573.2 204.1;" xml:space="preserve">
<style type="text/css">
	.st0{fill:#6BBE45;}
	.st1{fill:#71706F;}
</style>
<g id="Background_x2C__Guides_and_Header">
	<g>
		<polygon class="st0" points="454.3,0 434.3,20 461.4,47.2 406.2,47.2 380.4,72.1 486.4,72.1 505.4,90.1 351.4,89.1 466.5,204.1 
			486.5,184.1 462.1,159.9 512.1,159.9 539.1,134.8 436.8,134.8 419.2,117.8 573.2,119 		"/>
		<path class="st1" d="M96.2,156.1l0.8-23.6c1.4-0.2,2.7-0.3,4.1-0.4c1.4-0.1,2.7-0.2,3.9-0.2c1.2,0,2.3,0,3.2,0
			c0.9,0,1.6,0.1,2,0.2l-0.5,6.1c-1.6-0.1-3.6-0.1-6,0.1l-0.5,17.9H96.2z"/>
		<path class="st1" d="M113,156.1l1.1-24.2h7.2l-1,24.2H113z M113.3,124.5l4.7-4.7l4.7,4.7l-4.7,4.7L113.3,124.5z"/>
		<path class="st1" d="M146.7,157.3c0,2.3-0.4,4.1-1.2,5.4c-0.8,1.4-1.9,2.4-3.3,3.1c-1.4,0.7-3.1,1.2-5,1.4c-1.9,0.2-4,0.3-6.3,0.3
			c-0.8,0-1.7,0-2.6-0.1c-0.9-0.1-1.7-0.2-2.3-0.3l0.8-5.8c0.5,0.1,0.9,0.1,1.4,0.2c0.5,0,1,0,1.7,0c1.6,0,3,0,4.2-0.1
			c1.2-0.1,2.2-0.3,3.1-0.6c0.8-0.3,1.5-0.9,2-1.6c0.5-0.7,0.8-1.8,1-3.1l-8.6,0c-2.1,0-3.5-0.6-4.3-1.9c-0.8-1.3-1.2-3.1-1.2-5.4
			l1-17h7.2l-1,15.9c0,1.2,0.6,1.7,1.7,1.7h5.2l1-17.6h7.2L146.7,157.3z"/>
		<path class="st1" d="M157.7,156.1c-1.1,0-2-0.2-2.7-0.5c-0.7-0.3-1.2-0.8-1.6-1.4c-0.4-0.6-0.6-1.3-0.8-2.2
			c-0.1-0.8-0.2-1.8-0.2-2.8c0-2.4,0.8-4.4,2.3-5.7c1.6-1.4,3.8-2.1,6.7-2.1h6.6c0-0.8,0-1.5-0.1-2c-0.1-0.5-0.3-0.9-0.6-1.1
			c-0.3-0.3-0.8-0.4-1.3-0.5c-0.6-0.1-1.3-0.1-2.3-0.1h-9.6v-5.8h9.9c2.1,0,3.8,0.2,5.2,0.5c1.4,0.3,2.5,0.9,3.3,1.6
			c0.8,0.7,1.4,1.7,1.7,2.9c0.3,1.2,0.5,2.6,0.5,4.3l-0.8,15H157.7z M167.8,146.4h-5.7c-0.6,0-1.1,0.1-1.5,0.2
			c-0.4,0.2-0.7,0.4-0.9,0.6c-0.2,0.3-0.3,0.5-0.4,0.9c-0.1,0.3-0.1,0.7-0.1,1c0,0.7,0.2,1.1,0.4,1.4c0.3,0.2,0.8,0.4,1.5,0.4h6.3
			L167.8,146.4z"/>
		<path class="st1" d="M178.2,140.8c0-2.9,0.7-5.1,1.9-6.6c1.3-1.5,3.4-2.3,6.2-2.3h6.8l0.4-9.4l7.2-1.4l-1.1,35.1h-14.1
			c-2.5,0-4.4-0.7-5.7-2.2c-1.3-1.5-2-3.7-2-6.7L178.2,140.8z M193,138.1l-5.1,0c-1,0-1.6,0.3-2,0.8c-0.4,0.5-0.6,1.2-0.6,2
			l-0.2,6.3c0,0.9,0.2,1.5,0.6,2c0.4,0.5,1.1,0.7,2,0.7h4.8L193,138.1z"/>
		<path class="st1" d="M220.5,156.1l0.4-15.6c0-1.2-0.6-1.7-1.7-1.7l-5.7,0.2l-0.6,17.2h-7.2l1.2-33.9l7.1-1.2l-0.4,10.9l8.9,0
			c1,0,1.9,0.2,2.6,0.5c0.7,0.4,1.3,0.9,1.7,1.6c0.4,0.7,0.7,1.5,0.9,2.5c0.2,1,0.3,2,0.3,3.2l-0.5,16.5H220.5z"/>
		<path class="st1" d="M258.9,156.1l0.7-17.9H252l-0.7,17.9h-7.2l1.1-24.2h30.6c2.1,0,3.6,0.7,4.4,2.1c0.8,1.4,1.2,3.3,1.2,5.6
			l-0.7,16.5h-7.1l0.6-16.2c0.1-1.2-0.5-1.7-1.7-1.7h-5.8v0.7l-0.7,17.2H258.9z"/>
		<path class="st1" d="M299.7,131.9c2.3,0,3.9,0.6,4.9,1.9c1,1.2,1.5,2.9,1.4,5l-0.3,7.8h-13.7v0.5c0,0.6,0.1,1.2,0.2,1.6
			c0.1,0.5,0.3,0.8,0.6,1.1c0.3,0.3,0.8,0.5,1.4,0.7c0.6,0.2,1.3,0.2,2.3,0.2h9l-0.2,5.4h-10.1c-2.1,0-3.8-0.2-5.1-0.5
			c-1.3-0.3-2.4-0.9-3.1-1.6c-0.7-0.7-1.3-1.7-1.5-2.9c-0.3-1.2-0.4-2.6-0.4-4.3l0.3-6c0-2.9,0.6-5.1,1.9-6.6
			c1.3-1.5,3.4-2.3,6.2-2.3H299.7z M292.2,141.9h7.6l0.2-2.7c0-1.3-0.6-1.9-1.9-1.9h-3.2c-1,0-1.6,0.3-2,0.8c-0.4,0.5-0.6,1.2-0.6,2
			L292.2,141.9z"/>
		<path class="st1" d="M308.9,132.4h3.5l0.3-5.7l7.2-1.4l-0.3,7.1h4.1l-0.4,5.7h-3.9l-0.4,12.1c0,0.3,0.2,0.5,0.7,0.5h3.4l0,5.4
			l-5.9,0.1c-1.8,0-3.1-0.4-4.1-1.2c-0.9-0.8-1.4-1.9-1.4-3.4l0.5-13.5h-3.6L308.9,132.4z"/>
		<path class="st1" d="M327.4,156.1l0.8-23.6c1.4-0.2,2.7-0.3,4.1-0.4c1.4-0.1,2.7-0.2,3.9-0.2c1.2,0,2.3,0,3.2,0
			c0.9,0,1.6,0.1,2,0.2l-0.5,6.1c-1.6-0.1-3.6-0.1-6,0.1l-0.5,17.9H327.4z"/>
		<path class="st1" d="M353.9,156.5c-2.2,0-3.9-0.3-5.3-0.8c-1.4-0.5-2.5-1.3-3.4-2.2c-0.8-0.9-1.4-2-1.7-3.1
			c-0.3-1.2-0.5-2.4-0.5-3.6l0.3-5.6c0-1.2,0.2-2.4,0.5-3.6c0.3-1.2,0.9-2.2,1.7-3.2c0.8-0.9,1.9-1.7,3.4-2.2
			c1.4-0.5,3.2-0.8,5.3-0.8c2.2,0,3.9,0.3,5.3,0.8c1.4,0.5,2.5,1.3,3.4,2.2c0.8,0.9,1.4,2,1.7,3.2c0.3,1.2,0.5,2.4,0.5,3.6l-0.3,5.6
			c0,1.3-0.2,2.5-0.5,3.6c-0.3,1.2-0.9,2.2-1.7,3.1c-0.8,0.9-2,1.7-3.4,2.2C357.8,156.2,356.1,156.5,353.9,156.5 M353.9,150.5
			c1.3,0,2.2-0.3,2.9-0.9c0.6-0.6,0.9-1.5,0.9-2.7l0.3-6c0-1.2-0.3-2-0.9-2.7c-0.6-0.6-1.6-0.9-2.9-0.9c-1.3,0-2.2,0.3-2.9,0.9
			c-0.6,0.6-0.9,1.5-0.9,2.7l-0.3,6c0,1.2,0.3,2.1,0.9,2.7C351.7,150.1,352.6,150.5,353.9,150.5"/>
		<g>
			<polygon class="st1" points="116.5,91 118.3,54.8 106.8,57 105.6,80.4 91.1,80.4 92.5,34.7 81.1,37 79.3,91 			"/>
			<path class="st1" d="M70.5,60.9c-1.2-2-2.9-3.6-5.2-4.6c-2.3-1-5.3-1.6-9-1.6h-5.3c-2.4,0-4.8,0.4-7.2,1.2
				c-2.4,0.8-4.7,1.9-6.8,3.3l0.2-4.5L25.7,57l-1.9,34L23.7,93c-0.2,1.9-0.7,3.3-1.6,4.3c-0.9,1-2.4,1.5-4.5,1.5
				c-2.1,0-3.6-0.5-4.7-1.5c-1.1-1-1.5-2.4-1.4-4.3l1.8-25.9l-11.6,2L0.1,92.7c-0.2,2,0,4,0.6,5.8c0.5,1.9,1.5,3.5,2.8,5
				c1.4,1.5,3.2,2.7,5.5,3.6c2.3,0.9,5.2,1.3,8.7,1.3c3.5,0,6.3-0.4,8.5-1.3c2.2-0.9,3.9-2.1,5.2-3.6c1.3-1.5,2.2-3.2,2.8-5
				c0.6-1.9,0.9-3.8,1.1-5.8l0.2-1.7h36.8c0-0.7,0.1-1.5,0.2-2.5c0.1-1,0.2-2.1,0.2-3.2c0.1-1.1,0.1-2.2,0.1-3.2
				c0-1,0.1-1.9,0.1-2.5c0.2-4.2,0.2-7.8-0.1-10.9C72.4,65.6,71.6,63,70.5,60.9z M62,80.4H35.9l0.6-12c0.4-0.6,1-1.2,1.7-1.6
				c0.7-0.4,1.5-0.7,2.3-1c0.8-0.2,1.7-0.4,2.5-0.5c0.9-0.1,1.6-0.1,2.4-0.1h10.8c1.5,0,2.7,0.4,3.6,1.1c0.8,0.8,1.5,1.8,1.8,3.1
				c0.4,1.3,0.6,2.9,0.6,4.7C62.3,76.2,62.2,78.2,62,80.4z"/>
			
				<rect x="42.8" y="38.9" transform="matrix(0.7076 -0.7067 0.7067 0.7076 -17.1814 46.9531)" class="st1" width="10.7" height="10.7"/>
			<polygon class="st1" points="318.9,44.8 325.9,51.8 333.5,44.2 325.9,36.7 318.9,43.6 312,36.7 304.4,44.2 312,51.8 			"/>
			<polygon class="st1" points="165.8,91 177.3,91 179,34.7 167.5,37 			"/>
			<path class="st1" d="M202,91.4c0,1.7-0.5,3.2-1.6,4.4c-1.1,1.2-2.5,2.7-4.3,4.3l6.9,7.5c3.6-3,6.2-5.6,7.9-7.8
				c1.7-2.2,2.6-4.5,2.6-6.9l1.8-38l-11.5,2.2L202,91.4z"/>
			<path class="st1" d="M335.2,64.1c-0.5-1.9-1.4-3.6-2.7-5.1c-1.4-1.5-3.2-2.7-5.5-3.6c-2.3-0.9-5.2-1.3-8.6-1.3
				c-3.5,0-6.3,0.4-8.5,1.3c-2.2,0.9-4,2.1-5.3,3.6c-1.3,1.5-2.3,3.2-2.9,5.1c-0.6,1.9-1,3.8-1.1,5.8l-0.3,6.3
				c-0.2,1.4-0.1,2.9,0.2,4.3h-9.3c0-0.2,0-0.3,0-0.5c0-0.2,0-0.3,0-0.4c0.2-4.2,0.2-7.8-0.1-10.9c-0.3-3.1-1-5.7-2.2-7.7
				c-1.2-2-2.9-3.6-5.2-4.6c-2.3-1-5.3-1.6-9-1.6h-5.3c-2.4,0-4.8,0.4-7.2,1.2c-2.4,0.8-4.6,1.9-6.8,3.3l0.6-24.5L244.5,37
				l-1.6,43.5H233l1.4-45.7L223,37L221.2,91h96.6c3.4,0,6.3-0.4,8.5-1.2c2.2-0.8,3.9-1.9,5.2-3.3c1.3-1.4,2.2-3,2.8-4.7
				c0.6-1.8,0.9-3.7,1.1-5.7l0.3-6.3C335.8,67.9,335.6,65.9,335.2,64.1z M280.4,80.4h-26.1l0.6-12c0.4-0.6,1-1.2,1.7-1.6
				c0.7-0.4,1.5-0.7,2.3-1c0.9-0.2,1.7-0.4,2.6-0.5c0.9-0.1,1.6-0.1,2.4-0.1h10.8c1.5,0,2.7,0.4,3.6,1.1c0.8,0.8,1.5,1.8,1.8,3.1
				c0.4,1.3,0.6,2.9,0.6,4.7C280.6,76.2,280.5,78.2,280.4,80.4z M324.2,69.5l-0.3,5.2c-0.2,1.9-0.8,3.3-1.6,4.3
				c-0.9,1-2.3,1.5-4.4,1.5c-2.1,0-3.7-0.5-4.7-1.5c-1.1-1-1.5-2.4-1.3-4.3l0.3-5.2c0.2-1.9,0.8-3.3,1.8-4.3c1-1,2.5-1.5,4.5-1.5
				c2.1,0,3.6,0.5,4.6,1.5C324,66.2,324.4,67.6,324.2,69.5z"/>
			<polygon class="st1" points="102.7,102.8 95.7,95.9 88.2,103.5 95.7,111.1 102.7,104 109.7,111.1 117.3,103.5 109.7,95.9 			"/>
			<path class="st1" d="M147.3,80.4h-11.1l1.2-25.5l-11.5,2.2l-1.8,35.2c0,1.7-0.5,3.2-1.6,4.4c-1.1,1.2-2.5,2.6-4.3,4.3l6.9,7.5
				c3.6-3,6.2-5.6,7.9-7.8c1.7-2.2,2.6-4.5,2.6-6.9l0.2-2.7h22.7l1.8-56.3L148.7,37L147.3,80.4z"/>
		</g>
	</g>
</g>
<g id="Grid_90_Degree">
</g>
<g id="Grid_45_Degree">
</g>
<g id="Line_6_Purple">
</g>
<g id="Line_5_Green">
</g>
<g id="Line_4_Yellow">
</g>
<g id="Line_3_Orange">
</g>
<g id="Line_2_Red">
</g>
<g id="Line_1_Blue">
</g>
<g id="Text">
</g>
<g id="Numbers">
</g>
<g id="Key">
	<g>
	</g>
	<g>
	</g>
	<g>
	</g>
	<g>
	</g>
	<g>
	</g>
	<g>
	</g>
</g>
</svg>
